<svg xmlns="http://www.w3.org/2000/svg" viewBox="0 0 500 800" id="ukm-svg-root" aria-label="Interactive Map of the United Kingdom">

  <!-- ===== NORTHERN IRELAND ===== -->
  <path id="ukm-northern-ireland"
    class="ukm-region"
    data-region="northern-ireland"
    d="M 95,165 L 105,155 L 125,152 L 145,158 L 160,172 L 162,188
       L 150,198 L 132,205 L 112,200 L 96,190 Z"
    aria-label="Northern Ireland" />

  <!-- ===== SCOTLAND ===== -->
  <path id="ukm-scotland"
    class="ukm-region"
    data-region="scotland"
    d="M 200,20  L 230,18  L 265,28  L 290,22  L 310,35
       L 315,58  L 300,75  L 310,95  L 295,115 L 275,125
       L 260,140 L 245,160 L 225,170 L 205,165 L 190,148
       L 175,130 L 168,108 L 172,85  L 160,68  L 165,45
       L 180,32  Z
       M 130,55  L 145,50  L 158,60  L 155,75  L 140,80  L 128,70 Z
       M 155,28  L 165,22  L 175,30  L 168,40  L 155,38 Z"
    aria-label="Scotland" />

  <!-- ===== WALES ===== -->
  <path id="ukm-wales"
    class="ukm-region"
    data-region="wales"
    d="M 168,415 L 178,405 L 192,398 L 200,388 L 198,372
       L 188,360 L 175,350 L 162,342 L 150,348 L 140,362
       L 138,380 L 145,398 L 158,410 Z"
    aria-label="Wales" />

  <!-- ===== NORTH EAST ENGLAND ===== -->
  <path id="ukm-north-east"
    class="ukm-region"
    data-region="north-east"
    d="M 255,235 L 285,228 L 308,238 L 315,258 L 308,275
       L 285,280 L 262,275 L 250,260 Z"
    aria-label="North East England" />

  <!-- ===== NORTH WEST ENGLAND ===== -->
  <path id="ukm-north-west"
    class="ukm-region"
    data-region="north-west"
    d="M 195,268 L 215,258 L 250,260 L 262,275 L 258,298
       L 240,312 L 215,318 L 196,308 L 185,290 Z"
    aria-label="North West England" />

  <!-- ===== YORKSHIRE ===== -->
  <path id="ukm-yorkshire"
    class="ukm-region"
    data-region="yorkshire"
    d="M 258,298 L 285,280 L 315,285 L 322,305 L 315,325
       L 295,338 L 270,335 L 250,322 L 240,312 Z"
    aria-label="Yorkshire and The Humber" />

  <!-- ===== EAST MIDLANDS ===== -->
  <path id="ukm-east-midlands"
    class="ukm-region"
    data-region="east-midlands"
    d="M 265,338 L 295,338 L 320,348 L 325,372 L 315,390
       L 295,398 L 270,395 L 252,382 L 248,360 Z"
    aria-label="East Midlands" />

  <!-- ===== WEST MIDLANDS ===== -->
  <path id="ukm-west-midlands"
    class="ukm-region"
    data-region="west-midlands"
    d="M 195,345 L 218,335 L 248,338 L 248,360 L 252,382
       L 238,395 L 215,400 L 195,388 L 185,368 L 188,350 Z"
    aria-label="West Midlands" />

  <!-- ===== EAST OF ENGLAND ===== -->
  <path id="ukm-east-of-england"
    class="ukm-region"
    data-region="east-of-england"
    d="M 315,325 L 345,318 L 372,328 L 388,348 L 385,375
       L 368,392 L 348,398 L 325,390 L 315,372 L 315,348 Z"
    aria-label="East of England" />

  <!-- ===== LONDON ===== -->
  <path id="ukm-london"
    class="ukm-region"
    data-region="london"
    d="M 295,415 L 318,408 L 338,415 L 342,432 L 330,445
       L 308,448 L 292,438 Z"
    aria-label="London" />

  <!-- ===== SOUTH EAST ENGLAND ===== -->
  <path id="ukm-south-east"
    class="ukm-region"
    data-region="south-east"
    d="M 255,438 L 292,438 L 308,448 L 330,445 L 355,455
       L 368,472 L 360,492 L 335,502 L 305,505 L 275,495
       L 252,478 L 248,458 Z"
    aria-label="South East England" />

  <!-- ===== SOUTH WEST ENGLAND ===== -->
  <path id="ukm-south-west"
    class="ukm-region"
    data-region="south-west"
    d="M 155,418 L 185,408 L 215,412 L 240,425 L 252,445
       L 248,465 L 235,480 L 212,490 L 185,492 L 158,480
       L 135,462 L 128,442 L 138,428 Z"
    aria-label="South West England" />

  <!-- ===== REGION LABELS ===== -->
  <text class="ukm-label" x="138" y="188">N. Ireland</text>
  <text class="ukm-label" x="225" y="100">Scotland</text>
  <text class="ukm-label" x="158" y="380">Wales</text>
  <text class="ukm-label" x="262" y="258">NE</text>
  <text class="ukm-label" x="212" y="292">NW</text>
  <text class="ukm-label" x="278" y="312">Yorks</text>
  <text class="ukm-label" x="272" y="370">E. Mids</text>
  <text class="ukm-label" x="205" y="372">W. Mids</text>
  <text class="ukm-label" x="340" y="360">East</text>
  <text class="ukm-label" x="302" y="433">London</text>
  <text class="ukm-label" x="295" y="478">South East</text>
  <text class="ukm-label" x="178" y="458">South West</text>

</svg>
